<svg width="771" height="105" viewBox="0 0 771 105" fill="none" xmlns="http://www.w3.org/2000/svg">
<path d="M23.0681 103.21H-8.85651e-05L35.1491 1.39226H62.8905L97.99 103.21H74.9218L49.4175 24.6593H48.6221L23.0681 103.21ZM21.6263 63.1891H76.115V79.9931H21.6263V63.1891ZM115.045 103.21V1.39226H155.812C163.303 1.39226 169.55 2.50259 174.555 4.72323C179.56 6.94388 183.321 10.0263 185.84 13.9704C188.359 17.8814 189.619 22.389 189.619 27.4931C189.619 31.4704 188.823 34.9671 187.232 37.9832C185.642 40.9661 183.454 43.4188 180.67 45.3411C177.919 47.2303 174.77 48.5727 171.224 49.3681V50.3624C175.102 50.5282 178.731 51.6219 182.112 53.6437C185.526 55.6655 188.293 58.4993 190.414 62.1451C192.535 65.7578 193.596 70.0665 193.596 75.0712C193.596 80.4737 192.254 85.2961 189.569 89.5386C186.918 93.7479 182.99 97.0788 177.786 99.5315C172.583 101.984 166.169 103.21 158.546 103.21H115.045ZM136.572 85.611H154.122C160.121 85.611 164.496 84.4676 167.247 82.1806C169.998 79.8605 171.373 76.7782 171.373 72.9335C171.373 70.1162 170.694 67.6304 169.335 65.4761C167.976 63.3217 166.037 61.6314 163.518 60.4051C161.032 59.1787 158.066 58.5656 154.619 58.5656H136.572V85.611ZM136.572 43.9988H152.531C155.481 43.9988 158.099 43.4851 160.386 42.4576C162.706 41.397 164.529 39.9055 165.855 37.9832C167.214 36.0608 167.893 33.7573 167.893 31.0727C167.893 27.3937 166.584 24.4273 163.965 22.1735C161.38 19.9197 157.701 18.7928 152.928 18.7928H136.572V43.9988ZM305.969 52.3014C305.969 63.4046 303.864 72.8506 299.655 80.6394C295.479 88.4283 289.778 94.3776 282.553 98.4874C275.36 102.564 267.273 104.602 258.291 104.602C249.243 104.602 241.123 102.548 233.931 98.4377C226.738 94.3279 221.054 88.3785 216.878 80.5897C212.702 72.8009 210.614 63.3714 210.614 52.3014C210.614 41.1981 212.702 31.7521 216.878 23.9633C221.054 16.1745 226.738 10.2417 233.931 6.165C241.123 2.05514 249.243 0.000218153 258.291 0.000218153C267.273 0.000218153 275.36 2.05514 282.553 6.165C289.778 10.2417 295.479 16.1745 299.655 23.9633C303.864 31.7521 305.969 41.1981 305.969 52.3014ZM284.144 52.3014C284.144 45.1091 283.066 39.0438 280.912 34.1053C278.791 29.1669 275.791 25.4216 271.913 22.8695C268.036 20.3175 263.495 19.0414 258.291 19.0414C253.088 19.0414 248.547 20.3175 244.669 22.8695C240.791 25.4216 237.775 29.1669 235.621 34.1053C233.5 39.0438 232.439 45.1091 232.439 52.3014C232.439 59.4936 233.5 65.5589 235.621 70.4974C237.775 75.4358 240.791 79.1811 244.669 81.7332C248.547 84.2853 253.088 85.5613 258.291 85.5613C263.495 85.5613 268.036 84.2853 271.913 81.7332C275.791 79.1811 278.791 75.4358 280.912 70.4974C283.066 65.5589 284.144 59.4936 284.144 52.3014ZM389.606 1.39226H411.133V67.5144C411.133 74.9387 409.36 81.4349 405.813 87.0031C402.3 92.5712 397.378 96.9131 391.048 100.029C384.717 103.111 377.343 104.652 368.924 104.652C360.472 104.652 353.081 103.111 346.751 100.029C340.42 96.9131 335.498 92.5712 331.985 87.0031C328.472 81.4349 326.715 74.9387 326.715 67.5144V1.39226H348.242V65.6749C348.242 69.5528 349.087 72.9997 350.778 76.0158C352.501 79.0319 354.921 81.4017 358.036 83.1252C361.152 84.8487 364.781 85.7104 368.924 85.7104C373.1 85.7104 376.729 84.8487 379.812 83.1252C382.927 81.4017 385.33 79.0319 387.021 76.0158C388.744 72.9997 389.606 69.5528 389.606 65.6749V1.39226ZM429.766 19.1408V1.39226H513.388V19.1408H482.217V103.21H460.938V19.1408H429.766Z" fill="#FFBE0C"/>
<path d="M569.162 1.39226H595.71L623.75 69.8014H624.943L652.983 1.39226H679.531V103.21H658.651V36.9391H657.806L631.456 102.713H617.237L590.888 36.6906H590.043V103.21H569.162V1.39226ZM702.068 103.21V1.39226H770.676V19.1408H723.595V43.4022H767.146V61.1508H723.595V85.4619H770.874V103.21H702.068Z" fill="url(#paint0_linear_61_840)"/>
<defs>
<linearGradient id="paint0_linear_61_840" x1="-3.33105" y1="52.2104" x2="824.669" y2="52.2104" gradientUnits="userSpaceOnUse">
<stop offset="0.668269" stop-color="#FFBE0C"/>
<stop offset="0.9375" stop-color="#101010" stop-opacity="0.6"/>
</linearGradient>
</defs>
</svg>
