<svg width="64" height="64" viewBox="0 0 800 800" fill="none" xmlns="http://www.w3.org/2000/svg">
<g clip-path="url(#clip0_124_532)">
<path d="M204.25 145.638C230.906 120.198 283.346 123.796 304.444 171.791L339.037 250.484L375.097 234.633C395.912 225.484 410.921 226.44 421.744 232.041C432.363 237.536 438.845 247.451 442.837 256.375L486.277 237.555C513.214 225.484 544.875 237.778 556.753 264.797L583.439 325.504L606.775 315.356C638.949 301.366 676.636 314.053 693.476 344.839C694.953 347.54 696.319 350.315 697.567 353.153L721.532 407.668C750.506 473.578 763.284 545.466 758.798 617.324L757.075 644.911L757.056 645.215L756.777 645.338L440.169 784.521L439.894 784.642L439.658 784.457L218.654 610.517L218.647 610.512L218.642 610.508C197.875 593.053 186.292 574.292 183.359 556.315C180.424 538.321 186.167 521.179 199.913 507.022L200.102 507.174C213.125 494.391 233.601 487.966 254.533 487.449C275.237 486.938 296.487 492.204 311.559 502.929L188.897 222.148C176.228 193.327 184.994 164.017 204.25 145.638Z" fill="#FFBE0C" stroke="#FFBE0C"/>
<path d="M193.246 134.109C210.51 117.632 235.404 110.721 259.841 115.605C285.849 120.804 307.418 138.959 319.03 165.376L347.211 229.482L368.681 220.045C391.786 209.887 412.123 209.119 429.065 217.887C437.059 222.024 443.922 228.123 449.587 236.082L479.859 222.969C496.727 215.441 515.528 214.959 532.807 221.613C550.172 228.301 563.86 241.363 571.343 258.383L580.037 278.161L580.042 278.171L580.04 278.166C580.042 278.171 580.044 278.175 580.045 278.177C580.046 278.179 580.047 278.181 580.047 278.182L591.642 304.56L600.421 300.743C619.642 292.384 641.152 291.487 660.994 298.213C680.899 304.963 697.401 318.805 707.457 337.193C709.152 340.286 710.734 343.501 712.158 346.743L736.124 401.255C765.99 469.193 779.33 544.252 774.703 618.317L772.98 645.906C772.597 652.043 768.821 657.454 763.191 659.927L446.583 799.11C444.461 800.043 442.209 800.5 439.971 800.5C436.57 800.5 433.201 799.447 430.363 797.402L429.803 796.979L208.797 623.04V623.039C208.656 622.929 208.519 622.818 208.386 622.707C182.476 600.928 168.044 576.068 166.765 550.798C165.742 530.573 173.261 511.593 188.479 495.921C189.347 495.027 190.295 494.25 191.303 493.593C206.465 480.107 229.059 472.137 254.138 471.518L255.948 471.486C264.657 471.394 273.234 472.175 281.427 473.764L174.293 228.528C159.939 195.877 167.375 158.799 193.246 134.109ZM253.403 147.84C239.873 145.135 225.754 148.837 216.39 157.473L215.947 157.888C203.602 169.669 194.107 190.553 203.924 214.202L204.405 215.331L204.406 215.332L326.515 494.845L379.854 546.076C386.401 552.364 386.612 562.77 380.323 569.317C377.095 572.676 372.783 574.368 368.466 574.368C364.499 574.368 360.525 572.939 357.384 570.068L357.082 569.786L302.209 517.083C289.903 508.073 271.933 503.878 254.637 504.393C237.318 504.909 220.807 510.143 211.396 519.835H211.395C210.904 520.34 210.388 520.808 209.85 521.238C202.523 529.723 199.091 539.09 199.6 549.136C200.386 564.672 210.89 581.805 229.338 597.372L442.385 765.048L740.797 633.862L741.896 616.268C746.196 547.416 733.793 477.638 706.03 414.483L682.063 359.968C681.019 357.591 679.861 355.238 678.62 352.97C665.926 329.762 637.944 320.269 613.53 330.887L604.871 334.652L636.19 405.893C639.787 414.073 636.185 423.599 628.145 427.378L627.759 427.554C625.608 428.501 623.362 428.948 621.152 428.948C614.831 428.948 608.805 425.282 606.098 419.123L541.258 271.609C537.326 262.663 530.133 255.802 521 252.285C511.921 248.788 502.055 249.043 493.216 253.002L493.217 253.003C493.147 253.036 493.074 253.068 493.02 253.091H493.019L464.283 265.54L512.2 374.539C515.854 382.849 512.078 392.546 503.769 396.2C501.618 397.146 499.372 397.593 497.162 397.593C490.84 397.593 484.814 393.927 482.106 387.768L427.541 263.643C423.917 255.402 419.335 249.86 413.964 247.08C406.383 243.156 395.638 244.107 381.918 250.136L360.447 259.575L411.562 375.848C415.159 384.029 411.557 393.553 403.517 397.333L403.131 397.509C400.98 398.456 398.734 398.903 396.524 398.903C390.203 398.903 384.177 395.237 381.47 389.078L288.943 178.604C281.576 161.846 268.947 150.947 253.403 147.84Z" fill="black" stroke="#FFBE0C"/>
<path d="M679.578 611.614C687.893 607.967 697.587 611.75 701.231 620.064C704.877 628.377 701.096 638.072 692.782 641.717L677.061 648.612L677.062 648.613C674.915 649.556 672.672 650.001 670.468 650.001C664.141 650.001 658.111 646.329 655.407 640.163C651.762 631.849 655.544 622.155 663.857 618.509L679.578 611.614Z" fill="black" stroke="#FFBE0C"/>
<path d="M616.166 639.783C624.482 636.137 634.175 639.921 637.819 648.233C641.465 656.546 637.683 666.241 629.369 669.886L461.476 743.526C459.33 744.467 457.087 744.912 454.883 744.912C448.556 744.912 442.526 741.24 439.822 735.074C436.177 726.76 439.959 717.067 448.272 713.421L616.166 639.783Z" fill="black" stroke="#FFBE0C"/>
<path d="M218.008 84.7442C210.607 84.7442 203.973 79.5601 202.418 72.0271L191.501 19.1601C189.721 10.5402 195.266 2.10995 203.886 0.331462C212.502 -1.44384 220.936 4.0972 222.714 12.7155L233.631 65.5825C235.411 74.2024 229.866 82.6327 221.246 84.4127C220.161 84.6358 219.076 84.7442 218.008 84.7442Z" fill="#FFBE0C"/>
<path d="M51.8315 82.3092C48.9678 82.3092 46.069 81.5378 43.4554 79.9187L32.4483 73.1028C24.9662 68.4685 22.6554 58.647 27.2913 51.1633C31.9255 43.6797 41.7471 41.3705 49.2307 46.0064L60.2379 52.8223C67.72 57.4566 70.0307 67.2781 65.3949 74.7617C62.3797 79.6303 57.1654 82.3092 51.8315 82.3092Z" fill="#FFBE0C"/>
<path d="M139.079 140.115C136.074 140.115 133.036 139.267 130.337 137.492L96.3413 115.131C88.9883 110.295 86.9469 100.413 91.7835 93.0598C96.6202 85.7068 106.501 83.6653 113.855 88.502L147.852 110.862C155.205 115.699 157.246 125.581 152.41 132.934C149.347 137.589 144.263 140.115 139.079 140.115Z" fill="#FFBE0C"/>
<path d="M69.5529 246C62.1521 246 55.5178 240.816 53.9624 233.283C52.1823 224.663 57.7266 216.233 66.3465 214.454L119.213 203.538C127.837 201.761 136.264 207.304 138.044 215.922C139.824 224.542 134.28 232.972 125.66 234.752L72.7927 245.669C71.7058 245.892 70.6206 246 69.5529 246Z" fill="#FFBE0C"/>
<path d="M139.693 372.333C136.688 372.333 133.65 371.485 130.951 369.71C123.598 364.873 121.556 354.991 126.393 347.638L156.057 302.537C160.892 295.184 170.774 293.141 178.128 297.979C185.481 302.816 187.523 312.698 182.686 320.051L153.022 365.152C149.961 369.807 144.877 372.333 139.693 372.333Z" fill="#FFBE0C"/>
<path d="M368.348 180.333C360.947 180.333 354.313 175.149 352.757 167.618C350.977 158.998 356.521 150.567 365.141 148.787L400.386 141.509C409.008 139.729 417.436 145.273 419.216 153.893C420.996 162.513 415.452 170.943 406.832 172.723L371.588 180.002C370.499 180.225 369.416 180.333 368.348 180.333Z" fill="#FFBE0C"/>
<path d="M467.475 159.865C460.074 159.865 453.44 154.68 451.884 147.149C450.104 138.529 455.648 130.099 464.268 128.319L475.283 126.045C483.908 124.266 492.334 129.81 494.114 138.429C495.894 147.049 490.35 155.479 481.73 157.259L470.715 159.533C469.628 159.756 468.542 159.865 467.475 159.865Z" fill="#FFBE0C"/>
<path d="M312.978 101.399C309.972 101.399 306.934 100.551 304.235 98.7761C296.882 93.9394 294.84 84.0574 299.677 76.7044L329.341 31.6032C334.176 24.2502 344.058 22.2072 351.413 27.0454C358.766 31.8821 360.807 41.7641 355.97 49.1171L326.307 94.2183C323.247 98.8733 318.162 101.399 312.978 101.399Z" fill="#FFBE0C"/>
</g>
<defs>
<clipPath id="clip0_124_532">
<rect width="800" height="800" fill="white"/>
</clipPath>
</defs>
</svg>
