<svg width="834" height="96" viewBox="0 0 834 96" fill="none" xmlns="http://www.w3.org/2000/svg">
<g filter="url(#filter0_i_126_558)">
<path d="M510.28 86V1.99999H544.84C552.28 1.99999 558.64 3.2 563.92 5.6C569.28 8 573.4 11.44 576.28 15.92C579.16 20.4 580.6 25.72 580.6 31.88C580.6 38.04 579.16 43.36 576.28 47.84C573.4 52.32 569.28 55.76 563.92 58.16C558.64 60.56 552.28 61.76 544.84 61.76H518.92L525.88 54.44V86H510.28ZM525.88 56.12L518.92 48.56H544.12C551 48.56 556.16 47.12 559.6 44.24C563.12 41.28 564.88 37.16 564.88 31.88C564.88 26.52 563.12 22.4 559.6 19.52C556.16 16.64 551 15.2 544.12 15.2H518.92L525.88 7.51999V56.12ZM616.818 86V52.76L620.298 62.36L583.818 1.99999H600.498L629.778 50.6H620.418L649.938 1.99999H665.298L628.818 62.36L632.418 52.76V86H616.818ZM657.306 86L695.106 1.99999H710.466L748.386 86H732.066L699.546 10.28H705.786L673.386 86H657.306ZM674.706 66.56L678.906 54.32H724.266L728.466 66.56H674.706ZM759.069 86V1.99999H820.389V15.08H774.669V72.92H822.069V86H759.069ZM773.469 49.76V36.92H815.229V49.76H773.469Z" fill="#FFBE0C"/>
</g>
<g clip-path="url(#clip0_126_558)">
<g filter="url(#filter1_i_126_558)">
<path d="M238.64 91.2C232.08 91.2 226.04 90.12 220.52 87.96C215 85.8 210.2 82.8 206.12 78.96C202.04 75.04 198.88 70.48 196.64 65.28C194.4 60 193.28 54.24 193.28 48C193.28 41.76 194.4 36.04 196.64 30.84C198.88 25.56 202.04 21 206.12 17.16C210.2 13.24 215 10.2 220.52 8.04C226.04 5.88 232.04 4.8 238.52 4.8C245.08 4.8 251.08 5.88 256.52 8.04C262.04 10.2 266.84 13.24 270.92 17.16C275 21 278.16 25.56 280.4 30.84C282.64 36.04 283.76 41.76 283.76 48C283.76 54.24 282.64 60 280.4 65.28C278.16 70.56 275 75.12 270.92 78.96C266.84 82.8 262.04 85.8 256.52 87.96C251.08 90.12 245.12 91.2 238.64 91.2ZM238.52 77.52C242.76 77.52 246.68 76.8 250.28 75.36C253.88 73.92 257 71.88 259.64 69.24C262.28 66.52 264.32 63.4 265.76 59.88C267.28 56.28 268.04 52.32 268.04 48C268.04 43.68 267.28 39.76 265.76 36.24C264.32 32.64 262.28 29.52 259.64 26.88C257 24.16 253.88 22.08 250.28 20.64C246.68 19.2 242.76 18.48 238.52 18.48C234.28 18.48 230.36 19.2 226.76 20.64C223.24 22.08 220.12 24.16 217.4 26.88C214.76 29.52 212.68 32.64 211.16 36.24C209.72 39.76 209 43.68 209 48C209 52.24 209.72 56.16 211.16 59.76C212.68 63.36 214.76 66.52 217.4 69.24C220.04 71.88 223.16 73.92 226.76 75.36C230.36 76.8 234.28 77.52 238.52 77.52Z" fill="#FFBE0C"/>
</g>
</g>
<g clip-path="url(#clip1_126_558)">
<g filter="url(#filter2_i_126_558)">
<mask id="path-3-inside-1_126_558" fill="white">
<path d="M237.64 91.2C231.08 91.2 225.04 90.12 219.52 87.96C214 85.8 209.2 82.8 205.12 78.96C201.04 75.04 197.88 70.48 195.64 65.28C193.4 60 192.28 54.24 192.28 48C192.28 41.76 193.4 36.04 195.64 30.84C197.88 25.56 201.04 21 205.12 17.16C209.2 13.24 214 10.2 219.52 8.04C225.04 5.88 231.04 4.8 237.52 4.8C244.08 4.8 250.08 5.88 255.52 8.04C261.04 10.2 265.84 13.24 269.92 17.16C274 21 277.16 25.56 279.4 30.84C281.64 36.04 282.76 41.76 282.76 48C282.76 54.24 281.64 60 279.4 65.28C277.16 70.56 274 75.12 269.92 78.96C265.84 82.8 261.04 85.8 255.52 87.96C250.08 90.12 244.12 91.2 237.64 91.2ZM237.52 77.52C241.76 77.52 245.68 76.8 249.28 75.36C252.88 73.92 256 71.88 258.64 69.24C261.28 66.52 263.32 63.4 264.76 59.88C266.28 56.28 267.04 52.32 267.04 48C267.04 43.68 266.28 39.76 264.76 36.24C263.32 32.64 261.28 29.52 258.64 26.88C256 24.16 252.88 22.08 249.28 20.64C245.68 19.2 241.76 18.48 237.52 18.48C233.28 18.48 229.36 19.2 225.76 20.64C222.24 22.08 219.12 24.16 216.4 26.88C213.76 29.52 211.68 32.64 210.16 36.24C208.72 39.76 208 43.68 208 48C208 52.24 208.72 56.16 210.16 59.76C211.68 63.36 213.76 66.52 216.4 69.24C219.04 71.88 222.16 73.92 225.76 75.36C229.36 76.8 233.28 77.52 237.52 77.52Z"/>
</mask>
<path d="M219.52 87.96L220.358 85.8181H220.358L219.52 87.96ZM205.12 78.96L203.527 80.6185L203.535 80.6267L203.544 80.6349L205.12 78.96ZM195.64 65.28L193.523 66.1783L193.528 66.1899L195.64 65.28ZM195.64 30.84L197.752 31.7499L197.757 31.7383L195.64 30.84ZM205.12 17.16L206.696 18.8349L206.705 18.8267L206.714 18.8185L205.12 17.16ZM219.52 8.03999L220.358 10.1819H220.358L219.52 8.03999ZM255.52 8.03999L254.671 10.1777L254.682 10.1819L255.52 8.03999ZM269.92 17.16L268.327 18.8185L268.335 18.8267L268.344 18.8349L269.92 17.16ZM279.4 30.84L277.283 31.7383L277.288 31.7499L279.4 30.84ZM279.4 65.28L277.283 64.3817V64.3817L279.4 65.28ZM269.92 78.96L268.344 77.2851V77.2851L269.92 78.96ZM255.52 87.96L254.682 85.8181L254.671 85.8223L255.52 87.96ZM249.28 75.36L250.134 77.4955V77.4955L249.28 75.36ZM258.64 69.24L260.266 70.8663L260.278 70.8542L260.29 70.8419L258.64 69.24ZM264.76 59.88L262.641 58.9854L262.636 58.9972L262.631 59.0091L264.76 59.88ZM264.76 36.24L262.625 37.0942L262.636 37.1232L262.648 37.1518L264.76 36.24ZM258.64 26.88L256.99 28.4819L257.002 28.4942L257.014 28.5063L258.64 26.88ZM249.28 20.64L250.134 18.5045V18.5045L249.28 20.64ZM225.76 20.64L224.906 18.5045L224.897 18.5078L224.889 18.5112L225.76 20.64ZM216.4 26.88L214.774 25.2537V25.2537L216.4 26.88ZM210.16 36.24L208.041 35.3454L208.036 35.3572L208.031 35.3691L210.16 36.24ZM210.16 59.76L208.025 60.6142L208.033 60.6345L208.041 60.6546L210.16 59.76ZM216.4 69.24L214.75 70.8419L214.762 70.8542L214.774 70.8663L216.4 69.24ZM225.76 75.36L226.614 73.2245V73.2245L225.76 75.36ZM237.64 91.2V88.9C231.336 88.9 225.584 87.863 220.358 85.8181L219.52 87.96L218.682 90.1019C224.496 92.377 230.824 93.5 237.64 93.5V91.2ZM219.52 87.96L220.358 85.8181C215.096 83.7589 210.55 80.9122 206.696 77.2851L205.12 78.96L203.544 80.6349C207.85 84.6878 212.904 87.8411 218.682 90.1019L219.52 87.96ZM205.12 78.96L206.714 77.3015C202.855 73.5941 199.871 69.2886 197.752 64.3701L195.64 65.28L193.528 66.1899C195.889 71.6714 199.225 76.4859 203.527 80.6185L205.12 78.96ZM195.64 65.28L197.757 64.3817C195.648 59.41 194.58 53.9587 194.58 48H192.28H189.98C189.98 54.5213 191.152 60.59 193.523 66.1783L195.64 65.28ZM192.28 48H194.58C194.58 42.0408 195.648 36.6344 197.752 31.7499L195.64 30.84L193.528 29.9301C191.152 35.4456 189.98 41.4792 189.98 48H192.28ZM195.64 30.84L197.757 31.7383C199.876 26.7447 202.854 22.451 206.696 18.8349L205.12 17.16L203.544 15.4851C199.226 19.549 195.884 24.3753 193.523 29.9417L195.64 30.84ZM205.12 17.16L206.714 18.8185C210.566 15.1175 215.106 12.2372 220.358 10.1819L219.52 8.03999L218.682 5.89814C212.894 8.16279 207.834 11.3624 203.527 15.5014L205.12 17.16ZM219.52 8.03999L220.358 10.1819C225.587 8.1357 231.3 7.1 237.52 7.1V4.8V2.49999C230.78 2.49999 224.493 3.62429 218.682 5.89814L219.52 8.03999ZM237.52 4.8V7.1C243.824 7.1 249.532 8.1371 254.671 10.1777L255.52 8.03999L256.369 5.90234C250.628 3.62289 244.336 2.49999 237.52 2.49999V4.8ZM255.52 8.03999L254.682 10.1819C259.934 12.2372 264.474 15.1175 268.327 18.8185L269.92 17.16L271.514 15.5014C267.206 11.3624 262.146 8.16279 256.358 5.89814L255.52 8.03999ZM269.92 17.16L268.344 18.8349C272.186 22.451 275.164 26.7447 277.283 31.7383L279.4 30.84L281.517 29.9417C279.156 24.3753 275.814 19.549 271.496 15.4851L269.92 17.16ZM279.4 30.84L277.288 31.7499C279.392 36.6344 280.46 42.0408 280.46 48H282.76H285.06C285.06 41.4792 283.888 35.4456 281.512 29.9301L279.4 30.84ZM282.76 48H280.46C280.46 53.9587 279.392 59.41 277.283 64.3817L279.4 65.28L281.517 66.1783C283.888 60.59 285.06 54.5213 285.06 48H282.76ZM279.4 65.28L277.283 64.3817C275.164 69.3753 272.186 73.669 268.344 77.2851L269.92 78.96L271.496 80.6349C275.814 76.571 279.156 71.7447 281.517 66.1783L279.4 65.28ZM269.92 78.96L268.344 77.2851C264.49 80.9122 259.944 83.7589 254.682 85.8181L255.52 87.96L256.358 90.1019C262.136 87.8411 267.19 84.6878 271.496 80.6349L269.92 78.96ZM255.52 87.96L254.671 85.8223C249.529 87.8642 243.86 88.9 237.64 88.9V91.2V93.5C244.38 93.5 250.631 92.3758 256.369 90.0977L255.52 87.96ZM237.52 77.52V79.82C242.025 79.82 246.238 79.0539 250.134 77.4955L249.28 75.36L248.426 73.2245C245.122 74.5461 241.495 75.22 237.52 75.22V77.52ZM249.28 75.36L250.134 77.4955C254.012 75.9444 257.398 73.7351 260.266 70.8663L258.64 69.24L257.014 67.6137C254.602 70.0249 251.748 71.8956 248.426 73.2245L249.28 75.36ZM258.64 69.24L260.29 70.8419C263.136 67.9103 265.338 64.5419 266.889 60.7509L264.76 59.88L262.631 59.0091C261.302 62.2581 259.424 65.1297 256.99 67.6381L258.64 69.24ZM264.76 59.88L266.879 60.7746C268.53 56.863 269.34 52.5948 269.34 48H267.04H264.74C264.74 52.0452 264.03 55.697 262.641 58.9854L264.76 59.88ZM267.04 48H269.34C269.34 43.4061 268.531 39.1704 266.872 35.3282L264.76 36.24L262.648 37.1518C264.029 40.3495 264.74 43.9539 264.74 48H267.04ZM264.76 36.24L266.896 35.3858C265.344 31.508 263.135 28.1224 260.266 25.2536L258.64 26.88L257.014 28.5063C259.425 30.9176 261.296 33.772 262.625 37.0942L264.76 36.24ZM258.64 26.88L260.29 25.2781C257.42 22.3209 254.027 20.0617 250.134 18.5045L249.28 20.64L248.426 22.7755C251.733 24.0983 254.58 25.9991 256.99 28.4819L258.64 26.88ZM249.28 20.64L250.134 18.5045C246.238 16.9461 242.025 16.18 237.52 16.18V18.48V20.78C241.495 20.78 245.122 21.4539 248.426 22.7755L249.28 20.64ZM237.52 18.48V16.18C233.015 16.18 228.802 16.9461 224.906 18.5045L225.76 20.64L226.614 22.7755C229.918 21.4539 233.545 20.78 237.52 20.78V18.48ZM225.76 20.64L224.889 18.5112C221.083 20.0682 217.707 22.3202 214.774 25.2537L216.4 26.88L218.026 28.5063C220.533 25.9998 223.397 24.0918 226.631 22.7688L225.76 20.64ZM216.4 26.88L214.774 25.2537C211.914 28.1132 209.671 31.4849 208.041 35.3454L210.16 36.24L212.279 37.1346C213.689 33.7951 215.606 30.9268 218.026 28.5063L216.4 26.88ZM210.16 36.24L208.031 35.3691C206.464 39.2006 205.7 43.4217 205.7 48H208H210.3C210.3 43.9383 210.976 40.3194 212.289 37.1109L210.16 36.24ZM208 48H205.7C205.7 52.5051 206.466 56.7181 208.025 60.6142L210.16 59.76L212.295 58.9058C210.974 55.6019 210.3 51.9749 210.3 48H208ZM210.16 59.76L208.041 60.6546C209.669 64.5091 211.905 67.9109 214.75 70.8419L216.4 69.24L218.05 67.6381C215.615 65.1291 213.691 62.2109 212.279 58.8654L210.16 59.76ZM216.4 69.24L214.774 70.8663C217.642 73.7351 221.028 75.9444 224.906 77.4955L225.76 75.36L226.614 73.2245C223.292 71.8956 220.438 70.0249 218.026 67.6137L216.4 69.24ZM225.76 75.36L224.906 77.4955C228.802 79.0539 233.015 79.82 237.52 79.82V77.52V75.22C233.545 75.22 229.918 74.5461 226.614 73.2245L225.76 75.36Z" fill="#FFBE0C" mask="url(#path-3-inside-1_126_558)"/>
</g>
</g>
<g filter="url(#filter3_i_126_558)">
<path d="M72.32 92V7.99999H87.92V92H72.32ZM13.28 92V7.99999H28.88V92H13.28ZM27.56 56V42.68H73.52V56H27.56ZM110.428 92V7.99999H144.988C152.428 7.99999 158.788 9.2 164.068 11.6C169.428 14 173.548 17.44 176.428 21.92C179.308 26.4 180.748 31.72 180.748 37.88C180.748 44.04 179.308 49.36 176.428 53.84C173.548 58.32 169.428 61.76 164.068 64.16C158.788 66.56 152.428 67.76 144.988 67.76H119.068L126.028 60.44V92H110.428ZM126.028 62.12L119.068 54.56H144.268C151.148 54.56 156.308 53.12 159.748 50.24C163.268 47.28 165.028 43.16 165.028 37.88C165.028 32.52 163.268 28.4 159.748 25.52C156.308 22.64 151.148 21.2 144.268 21.2H119.068L126.028 13.52V62.12Z" fill="#FFBE0C"/>
</g>
<g filter="url(#filter4_i_126_558)">
<mask id="path-6-outside-2_126_558" maskUnits="userSpaceOnUse" x="302" y="0" width="165" height="88" fill="black">
<rect fill="white" x="302" width="165" height="88"/>
<path d="M304.01 86V1.99999H316.85L369.53 66.68H363.17V1.99999H378.65V86H365.81L313.13 21.32H319.49V86H304.01ZM401.159 86V1.99999H462.479V15.08H416.759V72.92H464.159V86H401.159ZM415.559 49.76V36.92H457.319V49.76H415.559Z"/>
</mask>
<path d="M304.01 86H302.01V88H304.01V86ZM304.01 1.99999V-7.62939e-06H302.01V1.99999H304.01ZM316.85 1.99999L318.401 0.736969L317.801 -7.62939e-06H316.85V1.99999ZM369.53 66.68V68.68H373.739L371.081 65.417L369.53 66.68ZM363.17 66.68H361.17V68.68H363.17V66.68ZM363.17 1.99999V-7.62939e-06H361.17V1.99999H363.17ZM378.65 1.99999H380.65V-7.62939e-06H378.65V1.99999ZM378.65 86V88H380.65V86H378.65ZM365.81 86L364.26 87.263L364.86 88H365.81V86ZM313.13 21.32V19.32H308.922L311.58 22.583L313.13 21.32ZM319.49 21.32H321.49V19.32H319.49V21.32ZM319.49 86V88H321.49V86H319.49ZM304.01 86H306.01V1.99999H304.01H302.01V86H304.01ZM304.01 1.99999V3.99999H316.85V1.99999V-7.62939e-06H304.01V1.99999ZM316.85 1.99999L315.3 3.26302L367.98 67.943L369.53 66.68L371.081 65.417L318.401 0.736969L316.85 1.99999ZM369.53 66.68V64.68H363.17V66.68V68.68H369.53V66.68ZM363.17 66.68H365.17V1.99999H363.17H361.17V66.68H363.17ZM363.17 1.99999V3.99999H378.65V1.99999V-7.62939e-06H363.17V1.99999ZM378.65 1.99999H376.65V86H378.65H380.65V1.99999H378.65ZM378.65 86V84H365.81V86V88H378.65V86ZM365.81 86L367.361 84.737L314.681 20.057L313.13 21.32L311.58 22.583L364.26 87.263L365.81 86ZM313.13 21.32V23.32H319.49V21.32V19.32H313.13V21.32ZM319.49 21.32H317.49V86H319.49H321.49V21.32H319.49ZM319.49 86V84H304.01V86V88H319.49V86ZM401.159 86H399.159V88H401.159V86ZM401.159 1.99999V-7.62939e-06H399.159V1.99999H401.159ZM462.479 1.99999H464.479V-7.62939e-06H462.479V1.99999ZM462.479 15.08V17.08H464.479V15.08H462.479ZM416.759 15.08V13.08H414.759V15.08H416.759ZM416.759 72.92H414.759V74.92H416.759V72.92ZM464.159 72.92H466.159V70.92H464.159V72.92ZM464.159 86V88H466.159V86H464.159ZM415.559 49.76H413.559V51.76H415.559V49.76ZM415.559 36.92V34.92H413.559V36.92H415.559ZM457.319 36.92H459.319V34.92H457.319V36.92ZM457.319 49.76V51.76H459.319V49.76H457.319ZM401.159 86H403.159V1.99999H401.159H399.159V86H401.159ZM401.159 1.99999V3.99999H462.479V1.99999V-7.62939e-06H401.159V1.99999ZM462.479 1.99999H460.479V15.08H462.479H464.479V1.99999H462.479ZM462.479 15.08V13.08H416.759V15.08V17.08H462.479V15.08ZM416.759 15.08H414.759V72.92H416.759H418.759V15.08H416.759ZM416.759 72.92V74.92H464.159V72.92V70.92H416.759V72.92ZM464.159 72.92H462.159V86H464.159H466.159V72.92H464.159ZM464.159 86V84H401.159V86V88H464.159V86ZM415.559 49.76H417.559V36.92H415.559H413.559V49.76H415.559ZM415.559 36.92V38.92H457.319V36.92V34.92H415.559V36.92ZM457.319 36.92H455.319V49.76H457.319H459.319V36.92H457.319ZM457.319 49.76V47.76H415.559V49.76V51.76H457.319V49.76Z" fill="#FFBE0C" mask="url(#path-6-outside-2_126_558)"/>
</g>
<defs>
<filter id="filter0_i_126_558" x="510.28" y="2" width="315.789" height="87" filterUnits="userSpaceOnUse" color-interpolation-filters="sRGB">
<feFlood flood-opacity="0" result="BackgroundImageFix"/>
<feBlend mode="normal" in="SourceGraphic" in2="BackgroundImageFix" result="shape"/>
<feColorMatrix in="SourceAlpha" type="matrix" values="0 0 0 0 0 0 0 0 0 0 0 0 0 0 0 0 0 0 127 0" result="hardAlpha"/>
<feOffset dx="4" dy="3"/>
<feGaussianBlur stdDeviation="2"/>
<feComposite in2="hardAlpha" operator="arithmetic" k2="-1" k3="1"/>
<feColorMatrix type="matrix" values="0 0 0 0 0 0 0 0 0 0 0 0 0 0 0 0 0 0 0.16 0"/>
<feBlend mode="normal" in2="shape" result="effect1_innerShadow_126_558"/>
</filter>
<filter id="filter1_i_126_558" x="193.28" y="4.7998" width="94.4795" height="89.4004" filterUnits="userSpaceOnUse" color-interpolation-filters="sRGB">
<feFlood flood-opacity="0" result="BackgroundImageFix"/>
<feBlend mode="normal" in="SourceGraphic" in2="BackgroundImageFix" result="shape"/>
<feColorMatrix in="SourceAlpha" type="matrix" values="0 0 0 0 0 0 0 0 0 0 0 0 0 0 0 0 0 0 127 0" result="hardAlpha"/>
<feOffset dx="4" dy="3"/>
<feGaussianBlur stdDeviation="2"/>
<feComposite in2="hardAlpha" operator="arithmetic" k2="-1" k3="1"/>
<feColorMatrix type="matrix" values="0 0 0 0 0 0 0 0 0 0 0 0 0 0 0 0 0 0 0.16 0"/>
<feBlend mode="normal" in2="shape" result="effect1_innerShadow_126_558"/>
</filter>
<filter id="filter2_i_126_558" x="192.28" y="4.7998" width="94.4795" height="89.4004" filterUnits="userSpaceOnUse" color-interpolation-filters="sRGB">
<feFlood flood-opacity="0" result="BackgroundImageFix"/>
<feBlend mode="normal" in="SourceGraphic" in2="BackgroundImageFix" result="shape"/>
<feColorMatrix in="SourceAlpha" type="matrix" values="0 0 0 0 0 0 0 0 0 0 0 0 0 0 0 0 0 0 127 0" result="hardAlpha"/>
<feOffset dx="4" dy="3"/>
<feGaussianBlur stdDeviation="2"/>
<feComposite in2="hardAlpha" operator="arithmetic" k2="-1" k3="1"/>
<feColorMatrix type="matrix" values="0 0 0 0 0 0 0 0 0 0 0 0 0 0 0 0 0 0 0.16 0"/>
<feBlend mode="normal" in2="shape" result="effect1_innerShadow_126_558"/>
</filter>
<filter id="filter3_i_126_558" x="13.2803" y="8" width="171.468" height="87" filterUnits="userSpaceOnUse" color-interpolation-filters="sRGB">
<feFlood flood-opacity="0" result="BackgroundImageFix"/>
<feBlend mode="normal" in="SourceGraphic" in2="BackgroundImageFix" result="shape"/>
<feColorMatrix in="SourceAlpha" type="matrix" values="0 0 0 0 0 0 0 0 0 0 0 0 0 0 0 0 0 0 127 0" result="hardAlpha"/>
<feOffset dx="4" dy="3"/>
<feGaussianBlur stdDeviation="2"/>
<feComposite in2="hardAlpha" operator="arithmetic" k2="-1" k3="1"/>
<feColorMatrix type="matrix" values="0 0 0 0 0 0 0 0 0 0 0 0 0 0 0 0 0 0 0.16 0"/>
<feBlend mode="normal" in2="shape" result="effect1_innerShadow_126_558"/>
</filter>
<filter id="filter4_i_126_558" x="302.011" y="0" width="168.148" height="91" filterUnits="userSpaceOnUse" color-interpolation-filters="sRGB">
<feFlood flood-opacity="0" result="BackgroundImageFix"/>
<feBlend mode="normal" in="SourceGraphic" in2="BackgroundImageFix" result="shape"/>
<feColorMatrix in="SourceAlpha" type="matrix" values="0 0 0 0 0 0 0 0 0 0 0 0 0 0 0 0 0 0 127 0" result="hardAlpha"/>
<feOffset dx="4" dy="3"/>
<feGaussianBlur stdDeviation="2"/>
<feComposite in2="hardAlpha" operator="arithmetic" k2="-1" k3="1"/>
<feColorMatrix type="matrix" values="0 0 0 0 0 0 0 0 0 0 0 0 0 0 0 0 0 0 0.16 0"/>
<feBlend mode="normal" in2="shape" result="effect1_innerShadow_126_558"/>
</filter>
<clipPath id="clip0_126_558">
<rect width="71" height="92" fill="white" transform="translate(189 4)"/>
</clipPath>
<clipPath id="clip1_126_558">
<rect width="33" height="96" fill="white" transform="translate(255)"/>
</clipPath>
</defs>
</svg>
